<svg width="33" height="30" viewBox="0 0 33 30" fill="none" xmlns="http://www.w3.org/2000/svg">
<path d="M23.6227 0.000456627H7.41914C5.62571 0.00287448 3.90643 0.722806 2.63833 2.00237C1.37023 3.28194 0.656817 5.0167 0.654541 6.82622V23.1738C0.656698 24.9834 1.37006 26.7183 2.63818 27.9979C3.90629 29.2776 5.62563 29.9976 7.41914 30H23.6227C25.4162 29.9977 27.1355 29.2777 28.4036 27.998C29.6717 26.7183 30.3849 24.9834 30.3868 23.1738V6.82622C30.3849 5.01662 29.6717 3.28168 28.4036 2.00198C27.1355 0.72227 25.4162 0.00229771 23.6227 0" fill="white"/>
<path d="M23.6735 1.16425H7.36987C5.8957 1.16642 4.48251 1.75819 3.44002 2.80986C2.39754 3.86153 1.81081 5.2873 1.80841 6.7747V23.2223C1.81081 24.7097 2.39754 26.1355 3.44002 27.1871C4.48251 28.2388 5.8957 28.8306 7.36987 28.8327H23.6735C25.1477 28.8311 26.5611 28.2394 27.6035 27.1876C28.646 26.1358 29.2324 24.7098 29.234 23.2223V6.7747C29.2316 5.28746 28.645 3.86182 27.6027 2.81018C26.5604 1.75854 25.1475 1.16666 23.6735 1.16425Z" fill="#005ABE"/>
<path d="M12.4769 12.4635H11.0949C10.8716 12.4691 10.6537 12.5345 10.4636 12.6529C10.2734 12.7713 10.1178 12.9385 10.0127 13.1374L10.1513 12.3991H8.46271L7.7124 16.6435H9.4032L9.87006 13.9566H11.689C11.689 13.9566 11.4567 15.287 11.353 15.8828C11.2493 16.4785 11.651 16.6234 11.8511 16.6234H12.7355L13.311 13.3229C13.3068 13.0995 13.2183 12.8862 13.0636 12.7264C12.9088 12.5666 12.6995 12.4724 12.4783 12.463" fill="white"/>
<path d="M7.24373 12.3975L6.92676 14.219L8.2114 12.3975H7.24373Z" fill="white"/>
<path d="M9.24847 5.75H3.59282L3.34692 7.15626H5.32121L4.52969 11.688H6.23272L7.02787 7.15626H9.00214L9.24847 5.75Z" fill="white"/>
<path d="M8.0311 11.6887C7.92451 11.692 7.81858 11.6706 7.72145 11.6262C7.62432 11.5818 7.53858 11.5155 7.47081 11.4324C7.40303 11.3493 7.35503 11.2517 7.33049 11.147C7.30595 11.0423 7.30553 10.9333 7.32925 10.8284L7.76395 8.34667C7.811 8.11087 7.93525 7.89789 8.11675 7.74194C8.29825 7.58599 8.52645 7.49615 8.76466 7.48684H11.5372C11.6438 7.48325 11.7497 7.50446 11.8468 7.54881C11.944 7.59316 12.0297 7.65947 12.0973 7.7426C12.1649 7.82574 12.2127 7.92346 12.2369 8.02821C12.2611 8.13296 12.2611 8.24193 12.2368 8.34667L11.8049 10.8284C11.7574 11.0644 11.6327 11.2775 11.4508 11.4335C11.2689 11.5895 11.0404 11.6794 10.8019 11.6887H8.0311ZM10.4188 10.2975L10.6669 8.88121H9.15136L8.90503 10.2975H10.4188Z" fill="white"/>
<path d="M19.1888 10.2978L19.4374 8.88153H21.6321L21.8758 7.4899H19.052C18.8135 7.4989 18.5849 7.58853 18.4029 7.74438C18.2209 7.90023 18.0961 8.11326 18.0486 8.34927L17.6148 10.831C17.591 10.936 17.5915 11.0451 17.6161 11.1499C17.6407 11.2547 17.6888 11.3524 17.7568 11.4355C17.8247 11.5185 17.9106 11.5848 18.0079 11.629C18.1052 11.6733 18.2113 11.6945 18.318 11.6908H21.0634L21.3057 10.3001L19.1888 10.2978Z" fill="white"/>
<path d="M15.7359 10.2978H13.8794L14.3698 7.48804H12.8895L12.3072 10.8287C12.2833 10.9336 12.2836 11.0425 12.308 11.1472C12.3324 11.2519 12.3803 11.3496 12.4481 11.4326C12.5158 11.5157 12.6015 11.582 12.6986 11.6264C12.7957 11.6707 12.9016 11.692 13.0082 11.6886H14.4517C14.6795 11.6741 14.9012 11.6087 15.1008 11.4971C15.3004 11.3855 15.473 11.2306 15.606 11.0435C15.606 11.0435 15.7712 11.53 16.0085 11.6374C16.3232 11.7116 16.6467 11.74 16.9694 11.7219L17.7106 7.48666H16.2295L15.7359 10.2978Z" fill="white"/>
<path d="M26.4095 7.50817H25.0284C24.8223 7.516 24.6229 7.58384 24.4542 7.7035C24.2854 7.82316 24.1546 7.98952 24.0775 8.18253L24.4751 5.90039H22.9183L21.9067 11.6882H23.4653L23.934 9.00218H25.6225C25.6225 9.00218 25.3907 10.3317 25.287 10.9284C25.1833 11.5251 25.5845 11.6686 25.7801 11.6686H26.5345L27.1109 8.36802C27.1347 8.26313 27.1344 8.15412 27.1099 8.04938C27.0854 7.94465 27.0374 7.84699 26.9696 7.76393C26.9018 7.68086 26.816 7.6146 26.7188 7.57026C26.6216 7.52592 26.5157 7.50468 26.4091 7.50817" fill="white"/>
<path d="M24.1444 16.4942L24.5891 13.9616H22.0886L21.6444 16.4942H24.1444ZM20.8583 18.0535C20.715 18.0577 20.5726 18.0287 20.442 17.9689C20.3114 17.909 20.1962 17.8198 20.105 17.7081C20.0139 17.5963 19.9492 17.4651 19.9161 17.3243C19.8829 17.1835 19.8821 17.0369 19.9138 16.8958L20.4979 13.5605C20.5613 13.2425 20.729 12.9553 20.974 12.7453C21.219 12.5352 21.5269 12.4146 21.8482 12.4027H25.3752C25.5186 12.3984 25.6611 12.4272 25.7917 12.487C25.9224 12.5468 26.0377 12.636 26.1288 12.7478C26.22 12.8596 26.2846 12.991 26.3176 13.1318C26.3506 13.2727 26.3512 13.4194 26.3193 13.5605L25.7356 16.8958C25.6716 17.2131 25.504 17.4997 25.2595 17.7096C25.015 17.9195 24.7079 18.0406 24.3871 18.0535H20.8583Z" fill="white"/>
<path d="M17.4404 16.4941H14.9381L15.3814 13.9612H19.4373L19.7044 12.4019H15.141C14.82 12.4141 14.5125 12.5349 14.268 12.7449C14.0234 12.9549 13.8561 13.2419 13.7929 13.5596L13.2088 16.8948C13.1769 17.0358 13.1775 17.1824 13.2104 17.3231C13.2434 17.4639 13.3079 17.5952 13.399 17.7069C13.49 17.8187 13.6052 17.9079 13.7358 17.9677C13.8663 18.0275 14.0087 18.0564 14.152 18.0521H17.6831C18.0039 18.0396 18.3113 17.9187 18.5559 17.7089C18.8005 17.499 18.9682 17.2123 19.032 16.8948L19.3893 14.8476H17.7283L17.4404 16.4941Z" fill="white"/>
<path d="M14.5399 20.1041L12.3356 24.687H10.9373L10.7716 21.9133L9.43671 24.687H8.03073L7.76221 20.1041H8.7584L8.93229 23.6988L10.6466 20.1041H11.6578L11.8317 23.6988L13.546 20.1041H14.5399Z" fill="#FFDC00"/>
<path d="M18.7022 24.6875H17.73L18.6936 20.1041H19.6654L18.7022 24.6875Z" fill="#FFDC00"/>
<path d="M20.2971 24.6875H19.3262L20.2898 20.1041H21.2616L20.2971 24.6875Z" fill="#FFDC00"/>
<path d="M27.0128 24.688H26.2308C25.9733 24.7051 25.7151 24.6684 25.4723 24.5802C25.3982 24.537 25.3385 24.4728 25.3005 24.3955C25.2626 24.3182 25.2481 24.2312 25.259 24.1457C25.2619 24.0006 25.2804 23.8563 25.3143 23.7153L26.0727 20.1059H27.0445L26.7995 21.2458H27.7395L27.5584 22.0746H26.6338L26.3576 23.3817C26.3378 23.4683 26.3246 23.5563 26.3182 23.6449C26.3132 23.68 26.3193 23.7158 26.3355 23.7473C26.3518 23.7788 26.3774 23.8043 26.4087 23.8204C26.528 23.8545 26.6522 23.868 26.776 23.8601H27.1867L27.0128 24.688Z" fill="#FFDC00"/>
<path d="M6.30204 22.5515H4.57228C4.58779 22.4641 4.61301 22.3788 4.64746 22.297C4.67031 22.238 4.70903 22.1866 4.75927 22.1486C4.80951 22.1106 4.86927 22.0875 4.93182 22.0818C5.01963 22.0701 5.10815 22.0648 5.19671 22.0658H5.97104C6.22371 22.0658 6.35004 22.1455 6.35004 22.3048C6.35004 22.3206 6.33495 22.403 6.30476 22.552L6.30204 22.5515ZM7.15786 21.3481C6.91582 21.2568 6.6572 21.2187 6.39939 21.2366H5.00789C4.68765 21.2157 4.36887 21.2955 4.09548 21.465C3.86575 21.6536 3.7149 21.9226 3.673 22.2185L3.36509 23.7093C3.34396 23.8007 3.32886 23.8817 3.3198 23.9524C3.30972 24.0169 3.30442 24.0821 3.30395 24.1474C3.29999 24.2361 3.31545 24.3246 3.34924 24.4065C3.38388 24.4761 3.43911 24.5331 3.50727 24.5696C3.6008 24.6181 3.70274 24.6479 3.80748 24.6573C3.96489 24.675 4.12321 24.6831 4.28158 24.6816H6.64346L6.81734 23.8592H4.82496C4.7008 23.867 4.57627 23.8515 4.45773 23.8135C4.42648 23.7962 4.40113 23.7698 4.38497 23.7378C4.36881 23.7058 4.3626 23.6696 4.36716 23.6339C4.36986 23.5481 4.38047 23.4628 4.39886 23.379V23.3767H4.80957V23.379H7.06865L7.31363 22.2153C7.34723 22.0714 7.36575 21.9244 7.36888 21.7766C7.3787 21.6917 7.36376 21.6058 7.32587 21.5293C7.28799 21.4529 7.22881 21.3893 7.1556 21.3463" fill="#FFDC00"/>
<path d="M14.8082 23.8585C14.666 23.8585 14.5949 23.7976 14.5949 23.6758C14.5954 23.6378 14.6033 23.6002 14.6183 23.5653C14.6332 23.5305 14.6548 23.4989 14.6819 23.4725C14.7116 23.4419 14.7473 23.4179 14.7868 23.4022C14.8263 23.3865 14.8686 23.3793 14.911 23.3811H15.9615V23.3788H16.3691L16.2672 23.8599L14.8082 23.8585ZM17.593 21.5152C17.5566 21.444 17.4983 21.3866 17.4268 21.3516C17.3324 21.3066 17.231 21.2783 17.1271 21.268C16.9736 21.2506 16.8192 21.2426 16.6647 21.2443H14.3101L14.1362 22.073H16.1286C16.2524 22.0653 16.3766 22.0789 16.4958 22.1132C16.5271 22.1293 16.5526 22.1547 16.5689 22.1861C16.5851 22.2175 16.5912 22.2532 16.5864 22.2882C16.58 22.3765 16.5668 22.4642 16.547 22.5505H15.7686H15.0065C14.8177 22.5479 14.6289 22.5598 14.4419 22.5861C14.308 22.6038 14.1798 22.6514 14.0665 22.7255C13.9618 22.7998 13.8797 22.902 13.8292 23.0206C13.7603 23.1825 13.7073 23.3508 13.6712 23.5232L13.6318 23.7146C13.5979 23.8556 13.5793 23.9999 13.5765 24.145C13.5728 24.2381 13.5903 24.3308 13.6277 24.4159C13.664 24.4872 13.7224 24.5446 13.7939 24.5795C13.8884 24.6246 13.99 24.6529 14.0941 24.6631C14.2476 24.6806 14.402 24.6885 14.5564 24.6868H17.0687L17.5903 22.216C17.6241 22.075 17.6426 21.9307 17.6455 21.7857C17.6491 21.6926 17.6314 21.5999 17.5939 21.5147" fill="#FFDC00"/>
<path d="M24.0495 22.552H22.3198C22.3351 22.4646 22.3601 22.3792 22.3945 22.2975C22.4173 22.2385 22.456 22.1871 22.5061 22.1491C22.5563 22.1111 22.6159 22.088 22.6784 22.0823C22.7662 22.0706 22.8547 22.0652 22.9433 22.0663H23.7176C23.9703 22.0663 24.0968 22.1459 24.0971 22.3052C24.0971 22.3211 24.0812 22.4035 24.0495 22.5524V22.552ZM24.9031 21.3485C24.661 21.2572 24.4024 21.2192 24.1446 21.237H22.754C22.4338 21.2161 22.115 21.2959 21.8416 21.4655C21.6119 21.654 21.461 21.9231 21.4191 22.2189L21.1108 23.7097C21.0896 23.8011 21.0745 23.8821 21.0655 23.9528C21.0554 24.0173 21.0501 24.0825 21.0496 24.1479C21.0456 24.2365 21.0611 24.325 21.0949 24.4069C21.1296 24.4765 21.1848 24.5335 21.2529 24.57C21.3465 24.6186 21.4484 24.6483 21.5532 24.6578C21.7106 24.6754 21.8689 24.6835 22.0273 24.682H24.3891L24.563 23.8596H22.5706C22.4465 23.8675 22.3219 23.852 22.2034 23.8139C22.1721 23.7967 22.1467 23.7703 22.1305 23.7383C22.1144 23.7062 22.1082 23.67 22.1128 23.6343C22.1155 23.5485 22.1261 23.4632 22.1445 23.3794V23.3771H22.5552V23.3794H24.8148L25.0597 22.2157C25.0934 22.0719 25.1119 21.9248 25.115 21.7771C25.1248 21.6922 25.1099 21.6062 25.072 21.5298C25.0341 21.4533 24.9749 21.3897 24.9017 21.3467" fill="#FFDC00"/>
<path d="M31.2931 1.25724H30.8887V2.45966H30.79V1.25724H30.3861V1.16586H31.2917L31.2931 1.25724Z" fill="#005ABE"/>
<path d="M32.6546 2.45904H32.5572V1.30862L32.0822 2.1045H32.0659L31.5909 1.30862V2.45904H31.4935V1.16425H31.6144L32.0727 1.93043L32.5309 1.16425H32.6541L32.6546 2.45904Z" fill="#005ABE"/>
</svg>
